<svg aria-hidden="true" style="position: absolute; width: 0; height: 0; overflow: hidden;" version="1.1" xmlns="http://www.w3.org/2000/svg" xmlns:xlink="http://www.w3.org/1999/xlink">
<defs>
<symbol id="icon-food" viewBox="0 0 32 32">
<path d="M29.5 21h-2.691c-0.045-0.239-0.1-0.473-0.16-0.706l4.799-2.399c0.494-0.247 0.693-0.848 0.447-1.342-0.248-0.494-0.846-0.692-1.342-0.447l-4.578 2.288c-1.746-3.768-5.555-6.394-9.975-6.394-5.382 0-9.865 3.888-10.809 9h-2.691c-1.378 0-2.5 1.121-2.5 2.5 0 0.49 0.18 0.963 0.505 1.329l3.495 3.932v0.739c0 1.379 1.122 2.5 2.5 2.5h19c1.379 0 2.5-1.121 2.5-2.5v-0.739l3.494-3.932c0.326-0.366 0.506-0.839 0.506-1.329 0-1.379-1.121-2.5-2.5-2.5zM25.799 21h-0.562l0.498-0.25c0.019 0.084 0.046 0.165 0.064 0.25zM16 13c4.029 0 7.5 2.4 9.082 5.841l-0.891 0.445c-1.416-3.115-4.546-5.286-8.191-5.286-4.282 0-7.859 2.993-8.77 7h-1.028c0.929-4.559 4.969-8 9.798-8zM20.576 21c-0.773-1.763-2.531-3-4.576-3s-3.802 1.237-4.576 3h-1.074c0.826-2.326 3.043-4 5.65-4 2.465 0 4.588 1.496 5.508 3.627l-0.932 0.373zM16 20c-0.883 0-1.67 0.391-2.22 1h-1.224c0.694-1.189 1.97-2 3.444-2 1.473 0 2.75 0.811 3.443 2h-1.225c-0.548-0.609-1.335-1-2.218-1zM16 16c-3.165 0-5.842 2.112-6.705 5h-1.032c0.892-3.444 4.017-6 7.737-6 3.246 0 6.043 1.948 7.295 4.734l-0.893 0.446c-1.088-2.457-3.547-4.18-6.402-4.18zM26 28v1.5c0 0.276-0.225 0.5-0.5 0.5h-19c-0.276 0-0.5-0.224-0.5-0.5v-1.5l-4-4.5c0-0.276 0.224-0.5 0.5-0.5h27c0.275 0 0.5 0.224 0.5 0.5l-4 4.5zM7.977 11.712c-0.007-0.014-0.012-0.027-0.018-0.042-0.519-1.253-0.003-2.482 0.463-3.591 0.441-1.052 0.832-1.984 0.428-2.893-0.002-0.004-0.003-0.008-0.005-0.012-0.001-0.003-0.002-0.006-0.003-0.009-0.001-0.002-0.001-0.004-0.001-0.006-0.020-0.053-0.032-0.109-0.032-0.169 0-0.27 0.219-0.49 0.49-0.49 0.208 0 0.385 0.13 0.456 0.313 0.558 1.271 0.051 2.521-0.422 3.647-0.438 1.042-0.794 2.010-0.419 2.892 0.002 0.007 0.002 0.013 0 0.020 0.011 0.040 0.018 0.082 0.018 0.125 0 0.277-0.225 0.503-0.502 0.503-0.194 0-0.36-0.11-0.443-0.27-0.001 0-0.002 0-0.002 0-0.003-0.006-0.005-0.012-0.008-0.018zM20.154 11.566c-0.006-0.013-0.011-0.027-0.016-0.040-0.519-1.253-0.004-2.483 0.461-3.592 0.442-1.052 0.832-1.984 0.428-2.893 0-0.004-0.002-0.008-0.004-0.012s-0.002-0.006-0.004-0.009c0-0.002 0-0.004 0-0.006-0.019-0.053-0.033-0.109-0.033-0.169 0-0.27 0.22-0.49 0.49-0.49 0.209 0 0.385 0.129 0.457 0.313 0.558 1.271 0.051 2.521-0.422 3.647-0.438 1.042-0.793 2.010-0.42 2.892 0.004 0.007 0.004 0.013 0.002 0.020 0.010 0.040 0.018 0.082 0.018 0.125 0 0.277-0.227 0.503-0.504 0.503-0.193 0-0.359-0.111-0.443-0.271h-0.002c-0.002-0.006-0.004-0.012-0.008-0.018zM15.019 7.212c-0.007-0.014-0.012-0.027-0.019-0.041-0.52-1.253-0.004-2.483 0.462-3.592 0.441-1.052 0.832-1.984 0.428-2.893-0.001-0.004-0.003-0.008-0.004-0.012-0.001-0.003-0.002-0.006-0.003-0.009-0.001-0.002-0.001-0.004-0.001-0.006-0.020-0.053-0.032-0.109-0.032-0.169 0-0.27 0.22-0.49 0.49-0.49 0.209 0 0.385 0.13 0.457 0.314 0.558 1.271 0.051 2.521-0.422 3.647-0.438 1.042-0.794 2.010-0.419 2.892 0.002 0.007 0.002 0.013 0 0.020 0.011 0.040 0.018 0.082 0.018 0.125 0 0.277-0.225 0.503-0.502 0.503-0.193 0-0.359-0.111-0.443-0.271-0.001 0-0.002 0-0.002 0-0.003-0.006-0.005-0.012-0.008-0.018z"></path>
</symbol>
<symbol id="icon-bookmark" viewBox="0 0 20 20">
<path d="M14 2v17l-4-4-4 4v-17c0-0.553 0.585-1.020 1-1h6c0.689-0.020 1 0.447 1 1z"></path>
</symbol>
<symbol id="icon-chevron-thin-right" viewBox="0 0 20 20">
<path d="M13.25 10l-7.141-7.42c-0.268-0.27-0.268-0.707 0-0.979 0.268-0.27 0.701-0.27 0.969 0l7.83 7.908c0.268 0.271 0.268 0.709 0 0.979l-7.83 7.908c-0.268 0.271-0.701 0.27-0.969 0s-0.268-0.707 0-0.979l7.141-7.417z"></path>
</symbol>
<symbol id="icon-aircraft-take-off" viewBox="0 0 20 20">
<path d="M19.87 6.453c0.119 0.257 0.127 1.29-4.884 3.642l-4.913 2.306c-1.71 0.803-4.191 1.859-5.285 2.151-0.766 0.204-1.497-0.316-1.497-0.316s-2.206-1.975-2.792-2.419c-0.585-0.444-0.535-0.67 0.215-0.91 0.467-0.149 3.13 0.493 4.265 0.78 1.339-0.8 2.562-1.486 3.141-1.798-1.396-1.033-4.008-2.962-4.841-3.55-0.799-0.565 0.010-0.768 0.010-0.768 0.368-0.099 1.162-0.228 1.562-0.144 2.721 0.569 7.263 2.071 7.611 2.186 0.832-0.436 2.128-1.092 2.922-1.465 2.075-0.974 4.327-0.037 4.486 0.305z"></path>
</symbol>
<symbol id="icon-chat" viewBox="0 0 20 20">
<path d="M5.8 12.2v-6.2h-3.8c-1.1 0-2 0.9-2 2v6c0 1.1 0.9 2 2 2h1v3l3-3h5c1.1 0 2-0.9 2-2v-1.82c-0.064 0.014-0.132 0.021-0.2 0.021l-7-0.001zM18 1h-9c-1.1 0-2 0.9-2 2v8h7l3 3v-3h1c1.1 0 2-0.899 2-2v-6c0-1.1-0.9-2-2-2z"></path>
</symbol>
<symbol id="icon-home" viewBox="0 0 20 20">
<path d="M18.672 11h-1.672v6c0 0.445-0.194 1-1 1h-4v-6h-4v6h-4c-0.806 0-1-0.555-1-1v-6h-1.672c-0.598 0-0.47-0.324-0.060-0.748l8.024-8.032c0.195-0.202 0.451-0.302 0.708-0.312 0.257 0.010 0.513 0.109 0.708 0.312l8.023 8.031c0.411 0.425 0.539 0.749-0.059 0.749z"></path>
</symbol>
<symbol id="icon-key" viewBox="0 0 20 20">
<path d="M17.691 4.725c-0.503-2.977-3.22-4.967-6.069-4.441s-5.256 2.816-4.753 5.795c0.107 0.641 0.408 1.644 0.763 2.365l-5.175 7.723c-0.191 0.285-0.299 0.799-0.242 1.141l0.333 1.971c0.058 0.342 0.372 0.572 0.7 0.514l1.516-0.281c0.328-0.059 0.744-0.348 0.924-0.639l2.047-3.311 0.018-0.022 1.386-0.256 2.39-3.879c0.785 0.139 1.912 0.092 2.578-0.031 2.848-0.526 4.087-3.67 3.584-6.649zM15.166 6.252c-0.784 1.17-1.584 0.346-2.703-0.475-1.119-0.818-2.135-1.322-1.352-2.492s2.326-1.455 3.447-0.635c1.12 0.819 1.391 2.432 0.608 3.602z"></path>
</symbol>
<symbol id="icon-location-pin" viewBox="0 0 20 20">
<path d="M10 2.009c-2.762 0-5 2.229-5 4.99 0 4.774 5 11 5 11s5-6.227 5-11c0-2.76-2.238-4.99-5-4.99zM10 9.76c-1.492 0-2.7-1.209-2.7-2.7s1.208-2.7 2.7-2.7c1.49 0 2.699 1.209 2.699 2.7s-1.209 2.7-2.699 2.7z"></path>
</symbol>
<symbol id="icon-magnifying-glass" viewBox="0 0 20 20">
<path d="M17.545 15.467l-3.779-3.779c0.57-0.935 0.898-2.035 0.898-3.21 0-3.417-2.961-6.377-6.378-6.377s-6.186 2.769-6.186 6.186c0 3.416 2.961 6.377 6.377 6.377 1.137 0 2.2-0.309 3.115-0.844l3.799 3.801c0.372 0.371 0.975 0.371 1.346 0l0.943-0.943c0.371-0.371 0.236-0.84-0.135-1.211zM4.004 8.287c0-2.366 1.917-4.283 4.282-4.283s4.474 2.107 4.474 4.474c0 2.365-1.918 4.283-4.283 4.283s-4.473-2.109-4.473-4.474z"></path>
</symbol>
<symbol id="icon-map" viewBox="0 0 20 20">
<path d="M19.447 3.718l-6-3c-0.281-0.141-0.613-0.141-0.895 0l-5.63 2.815-5.606-1.869c-0.306-0.102-0.64-0.051-0.901 0.138s-0.415 0.49-0.415 0.811v13.001c0 0.379 0.214 0.725 0.553 0.894l6 3c0.141 0.070 0.294 0.106 0.447 0.106s0.307-0.035 0.447-0.106l5.63-2.814 5.606 1.869c0.305 0.1 0.64 0.049 0.901-0.139s0.415-0.49 0.415-0.81v-13.002c0.001-0.379-0.213-0.725-0.552-0.894zM8 5.231l4-2v11.763l-4 2v-11.763zM2 4l4 1.333v11.661l-4-2v-10.994zM18 16.227l-4-1.334v-11.662l4 2v10.996z"></path>
</symbol>
<symbol id="icon-star-outlined" viewBox="0 0 20 20">
<path d="M18.8 8.022h-6.413l-2.387-6.722-2.389 6.722h-6.412l5.232 3.947-1.871 6.929 5.44-4.154 5.438 4.154-1.869-6.929 5.231-3.947zM10 12.783l-3.014 2.5 1.243-3.562-2.851-2.3 3.522 0.101 1.1-4.040 1.099 4.040 3.521-0.101-2.851 2.3 1.243 3.562-3.012-2.5z"></path>
</symbol>
<symbol id="icon-star" viewBox="0 0 20 20">
<path d="M10 1.3l2.388 6.722h6.412l-5.232 3.948 1.871 6.928-5.439-4.154-5.438 4.154 1.87-6.928-5.233-3.948h6.412l2.389-6.722z"></path>
</symbol>
</defs>
</svg>
